<?xml version="1.0" encoding="utf-8"?>
<!-- Generator: Adobe Illustrator 26.5.0, SVG Export Plug-In . SVG Version: 6.00 Build 0)  -->
<svg version="1.1" id="Calque_2_00000071518591032056300950000001847742908825322625_"
	 xmlns="http://www.w3.org/2000/svg" xmlns:xlink="http://www.w3.org/1999/xlink" x="0px" y="0px" viewBox="0 0 230.9 230.9"
	 style="enable-background:new 0 0 230.9 230.9;" xml:space="preserve">
<style type="text/css">
	.st0{fill:#FFFFFF;}
</style>
<g id="Calque_1-2">
	<g>
		<path class="st0" d="M170.1,40H144c-3.1-13.1-14.8-22.6-28.5-22.6S90,26.9,86.9,40H60.8c-14,0-25.3,11.4-25.3,25.3v1.1
			c0,9.5,5.3,18.1,13.6,22.4v99.2c0,14,11.4,25.3,25.3,25.3h82.1c14,0,25.3-11.4,25.3-25.3V88.9c8.3-4.3,13.6-12.9,13.6-22.4v-1.1
			C195.4,51.4,184.1,40,170.1,40z M115.4,35.3c3.8,0,7.2,1.8,9.3,4.7h-18.5C108.3,37.1,111.7,35.3,115.4,35.3z M164,188.1
			c0,4.1-3.4,7.5-7.5,7.5H74.4c-4.1,0-7.5-3.4-7.5-7.5V91.8H164V188.1z M177.6,66.4c0,4.1-3.4,7.5-7.5,7.5H60.8
			c-4.1,0-7.5-3.4-7.5-7.5v-1.1c0-4.1,3.4-7.5,7.5-7.5h109.3c4.1,0,7.5,3.4,7.5,7.5L177.6,66.4L177.6,66.4z"/>
		<path class="st0" d="M97,123.8v57.5c0,4.9-4,8.9-8.9,8.9c-2.4,0-4.6-0.9-6.3-2.6c-1.7-1.7-2.6-3.9-2.6-6.3v-57.5
			c0-4.9,4-8.9,8.9-8.9C93,114.9,97,118.9,97,123.8z"/>
		<path class="st0" d="M124.4,123.8v57.5c0,4.9-4,8.9-8.9,8.9c-4.9,0-8.9-4-8.9-8.9v-57.5c0-4.9,4-8.9,8.9-8.9
			C120.4,114.9,124.4,118.9,124.4,123.8z"/>
		<path class="st0" d="M151.7,123.8v57.5c0,4.9-4,8.9-8.9,8.9c-2.4,0-4.6-0.9-6.3-2.6c-1.7-1.7-2.6-3.9-2.6-6.3v-57.5
			c0-4.9,4-8.9,8.9-8.9S151.7,118.9,151.7,123.8z"/>
	</g>
</g>
</svg>
