<?xml version="1.0" encoding="utf-8"?>
<!-- Generator: Adobe Illustrator 26.5.0, SVG Export Plug-In . SVG Version: 6.00 Build 0)  -->
<svg version="1.1" id="Calque_1" xmlns="http://www.w3.org/2000/svg" xmlns:xlink="http://www.w3.org/1999/xlink" x="0px" y="0px"
	 viewBox="0 0 20 20" style="enable-background:new 0 0 20 20;" xml:space="preserve">
<style type="text/css">
	.st0{fill:#FFFFFF;}
</style>
<g>
	<g>
		<path class="st0" d="M13.6,18H6c-1.7,0-3-1.5-3-3.2V6.7c0-1.8,1.4-3.2,3-3.2h5.4c0.4,0,0.7,0.4,0.7,0.8c0,0.4-0.3,0.8-0.7,0.8H6
			C5.2,5,4.5,5.8,4.5,6.7v8.1c0,0.9,0.7,1.6,1.5,1.6h7.6c0.9,0,1.5-0.7,1.5-1.6V9.1c0-0.4,0.3-0.8,0.7-0.8c0.4,0,0.7,0.4,0.7,0.8
			v5.7C16.7,16.5,15.3,18,13.6,18z"/>
		<path class="st0" d="M8.5,9.6C8.5,9.6,8.5,9.7,8.5,9.6C8.5,9.6,8.5,9.6,8.5,9.6L8.5,9.6z M8.4,9.8C8.4,9.8,8.4,9.8,8.4,9.8
			C8.4,9.8,8.4,9.8,8.4,9.8z"/>
		<path class="st0" d="M18,4c0-0.6-0.2-1.1-0.6-1.4l0,0C17,2.2,16.5,2,15.9,2c-0.5,0-1,0.3-1.4,0.7l-6,7c0,0,0,0,0,0c0,0,0,0,0,0
			c0,0,0,0,0,0c0,0,0,0,0,0c0,0,0,0.1,0,0.1c0,0,0,0,0,0c0,0,0,0,0,0c0,0,0,0,0,0l-1,3c-0.1,0.3,0,0.6,0.2,0.8
			C7.7,13.9,7.9,14,8.1,14c0.1,0,0.2,0,0.3-0.1l2.8-1.3c0,0,0,0,0,0c0,0,0,0,0,0c0.1,0,0.1-0.1,0.2-0.1c0,0,0,0,0,0c0,0,0,0,0,0
			l6.1-7C17.8,5.1,18,4.6,18,4z M16.4,4.5l-5.5,6.4l-0.7-0.7l5.5-6.4c0.1-0.1,0.2-0.2,0.3-0.2c0.1,0,0.2,0,0.3,0.1l0,0
			c0.1,0.1,0.1,0.2,0.1,0.3C16.5,4.2,16.5,4.4,16.4,4.5z"/>
	</g>
</g>
</svg>
