<svg width="20" height="20" viewBox="0 0 20 20" fill="none" xmlns="http://www.w3.org/2000/svg">
	<path d="M9.65483 2.5C10.1151 2.5 10.4882 2.8731 10.4882 3.33333C10.4882 3.76069 10.1665 4.11292 9.75201 4.16106L9.65483 4.16667H5.48816C5.0608 4.16667 4.70857 4.48837 4.66043 4.90282L4.65483 5V15C4.65483 15.4274 4.97653 15.7796 5.39098 15.8277L5.48816 15.8333H9.23816C9.69841 15.8333 10.0715 16.2064 10.0715 16.6667C10.0715 17.094 9.7498 17.4463 9.33535 17.4944L9.23816 17.5H5.48816C4.15676 17.5 3.06844 16.4593 2.9924 15.1469L2.98816 15V5C2.98816 3.6686 4.02893 2.58028 5.34127 2.50424L5.48816 2.5H9.65483ZM14.4107 7.05372L16.7677 9.41075C17.0932 9.73617 17.0932 10.2638 16.7677 10.5892L14.4107 12.9462C14.0852 13.2717 13.5577 13.2717 13.2322 12.9462C12.9067 12.6208 12.9067 12.0932 13.2322 11.7677L14.1667 10.8333H9.65483C9.19458 10.8333 8.82149 10.4602 8.82149 10C8.82149 9.53975 9.19458 9.16667 9.65483 9.16667H14.1667L13.2322 8.23223C12.9067 7.9068 12.9067 7.37916 13.2322 7.05372C13.5577 6.72828 14.0852 6.72828 14.4107 7.05372Z" fill="#9AA8BE"/>
</svg>
