<svg width="22" height="23" viewBox="0 0 22 23" fill="none" xmlns="http://www.w3.org/2000/svg">
	<path d="M10.8911 0C5.50615 0.00122357 1.01842 3.76155 0 8.75462H4.54568C4.88027 7.80177 5.43045 6.94894 6.14419 6.24631C7.36605 5.04997 9.0306 4.31674 10.8911 4.31552C12.7519 4.31674 14.4165 5.04966 15.638 6.24631C16.8568 7.44571 17.6039 9.0804 17.6048 10.9072C17.6039 12.7346 16.8571 14.3687 15.638 15.5687C14.4165 16.7647 12.7519 17.4982 10.8911 17.4991C9.0306 17.4982 7.36605 16.765 6.14419 15.5687C5.43699 14.8721 4.88993 14.0282 4.5544 13.0867L0.00965773 13.0854V18.5857C0.00965773 23.2735 4.1413 22.9972 4.1413 22.9972L4.14379 19.5713C6.01427 20.9784 8.35269 21.8147 10.8911 21.815C17.0269 21.8134 21.9984 16.932 21.9997 10.9075C21.9988 4.88234 17.0269 0.00122357 10.8911 0Z" fill="#00ADEF"/>
</svg>
